HIERARCHY
ROOT Hips
{
	OFFSET 0.000000 0.000000 0.000000
	CHANNELS 6 Xposition Yposition Zposition Zrotation Yrotation Xrotation 
	JOINT LHipJoint
	{
		OFFSET 0.000000 0.000000 0.000000
		CHANNELS 3 Zrotation Yrotation Xrotation
		JOINT LeftUpLeg
		{
			OFFSET 1.363060 -1.794630 0.839290
			CHANNELS 3 Zrotation Yrotation Xrotation
			JOINT LeftLeg
			{
				OFFSET 2.448110 -6.726130 0.000000
				CHANNELS 3 Zrotation Yrotation Xrotation
				JOINT LeftFoot
				{
					OFFSET 2.562200 -7.039590 0.000000
					CHANNELS 3 Zrotation Yrotation Xrotation
					JOINT LeftToeBase
					{
						OFFSET 0.157640 -0.433110 2.322550
						CHANNELS 3 Zrotation Yrotation Xrotation
						End Site
						{
							OFFSET 0.000000 0.000000 0.000000
						}
					}
				}
			}
		}
	}
	JOINT RHipJoint
	{
		OFFSET 0.000000 0.000000 0.000000
		CHANNELS 3 Zrotation Yrotation Xrotation
		JOINT RightUpLeg
		{
			OFFSET -1.305520 -1.794630 0.839290
			CHANNELS 3 Zrotation Yrotation Xrotation
			JOINT RightLeg
			{
				OFFSET -2.542530 -6.985550 0.000000
				CHANNELS 3 Zrotation Yrotation Xrotation
				JOINT RightFoot
				{
					OFFSET -2.568260 -7.056230 0.000000
					CHANNELS 3 Zrotation Yrotation Xrotation
					JOINT RightToeBase
					{
						OFFSET -0.164730 -0.452590 2.363150
						CHANNELS 3 Zrotation Yrotation Xrotation
						End Site
						{
							OFFSET 0.000000 0.000000 0.000000
						}
					}
				}
			}
		}
	}
	JOINT LowerBack
	{
		OFFSET 0.000000 0.000000 0.000000
		CHANNELS 3 Zrotation Yrotation Xrotation
		JOINT Spine
		{
			OFFSET 0.028270 2.035590 -0.193380
			CHANNELS 3 Zrotation Yrotation Xrotation
			JOINT Spine1
			{
				OFFSET 0.056720 2.048850 -0.042750
				CHANNELS 3 Zrotation Yrotation Xrotation
				JOINT Neck
				{
					OFFSET 0.000000 0.000000 0.000000
					CHANNELS 3 Zrotation Yrotation Xrotation
					JOINT Neck1
					{
						OFFSET -0.054170 1.746240 0.172020
						CHANNELS 3 Zrotation Yrotation Xrotation
						JOINT Head
						{
							OFFSET 0.104070 1.761360 -0.123970
							CHANNELS 3 Zrotation Yrotation Xrotation
							End Site
							{
								OFFSET 0.000000 0.000000 0.000000
							}
						}
					}
				}
				JOINT LeftShoulder
				{
					OFFSET 0.000000 0.000000 0.000000
					CHANNELS 3 Zrotation Yrotation Xrotation
					JOINT LeftArm
					{
						OFFSET 3.362410 1.200890 -0.311210
						CHANNELS 3 Zrotation Yrotation Xrotation
						JOINT LeftForeArm
						{
							OFFSET 4.983000 -0.000000 -0.000000
							CHANNELS 3 Zrotation Yrotation Xrotation
							JOINT LeftHand
							{
								OFFSET 3.483560 -0.000000 -0.000000
								CHANNELS 3 Zrotation Yrotation Xrotation
								JOINT LeftFingerBase
								{
									OFFSET 0.000000 0.000000 0.000000
									CHANNELS 3 Zrotation Yrotation Xrotation
									JOINT LeftHandIndex1
									{
										OFFSET 0.715260 -0.000000 -0.000000
										CHANNELS 3 Zrotation Yrotation Xrotation
										End Site
										{
											OFFSET 0.000000 0.000000 0.000000
										}
									}
								}
								JOINT LThumb
								{
									OFFSET 0.000000 0.000000 0.000000
									CHANNELS 3 Zrotation Yrotation Xrotation
									End Site
									{
										OFFSET 0.000000 0.000000 0.000000
									}
								}
							}
						}
					}
				}
				JOINT RightShoulder
				{
					OFFSET 0.000000 0.000000 0.000000
					CHANNELS 3 Zrotation Yrotation Xrotation
					JOINT RightArm
					{
						OFFSET -3.136600 1.374050 -0.404650
						CHANNELS 3 Zrotation Yrotation Xrotation
						JOINT RightForeArm
						{
							OFFSET -5.241900 -0.000000 -0.000000
							CHANNELS 3 Zrotation Yrotation Xrotation
							JOINT RightHand
							{
								OFFSET -3.444170 -0.000000 -0.000000
								CHANNELS 3 Zrotation Yrotation Xrotation
								JOINT RightFingerBase
								{
									OFFSET 0.000000 0.000000 0.000000
									CHANNELS 3 Zrotation Yrotation Xrotation
									JOINT RightHandIndex1
									{
										OFFSET -0.622530 -0.000000 -0.000000
										CHANNELS 3 Zrotation Yrotation Xrotation
										End Site
										{
											OFFSET 0.000000 0.000000 0.000000
										}
									}
								}
								JOINT RThumb
								{
									OFFSET 0.000000 0.000000 0.000000
									CHANNELS 3 Zrotation Yrotation Xrotation
									End Site
									{
										OFFSET 0.000000 0.000000 0.000000
									}
								}
							}
						}
					}
				}
			}
		}
	}
}
MOTION
Frames: 9
Frame Time: 0.008333
0.294063 14.680243 -13.773616 -2.503948 -0.490217 36.894701 2.711974 -0.962495 -1.643196 -6.020398 -13.967071 -71.678327 14.647543 21.254272 74.706327 0.385702 13.214726 -30.491796 1.182600 -6.901600 -19.424300 -3.841812 0.242763 0.383594 9.440079 21.223926 -72.847991 -15.173313 -21.787618 76.338499 -2.146565 -8.240753 -34.585420 -0.025100 1.023700 -2.813900 -0.329062 0.995120 28.209693 1.756412 1.867338 -2.318387 3.251889 0.648618 -7.333324 -3.112182 1.068905 -15.571750 0.594675 1.639095 -3.555783 -0.732100 0.503600 2.069200 9.391529 2.478453 -0.394468 -94.961770 -23.061403 10.608217 4.647535 -10.293328 -0.379116 -0.241813 -0.314652 5.762740 27.652196 -8.357365 -4.186800 -7.125000 0.000000 0.000000 0.736000 20.992700 -0.423500 -7.816961 -2.909193 -0.790587 90.470654 20.554615 11.000465 -11.037632 21.201562 -2.450856 0.887949 0.637887 27.709773 -24.151490 -21.779635 10.064400 7.125000 0.000000 0.000000 4.671000 -54.696600 -1.114500 
0.285546 14.747067 -13.614822 -2.519883 -0.442030 36.552239 2.652164 -0.988528 -1.622716 -6.432127 -13.685907 -70.116974 14.327647 21.142961 73.804224 0.366933 13.336395 -30.580886 1.311800 -7.254700 -20.472300 -3.817159 0.277771 0.378376 10.073711 21.077410 -71.155349 -14.837426 -21.684651 75.401615 -2.136169 -8.497170 -34.800098 -0.049300 1.432300 -3.939100 -0.300270 0.983994 27.709861 1.768596 1.860171 -2.387286 3.301262 0.651794 -7.358037 -3.152403 1.064507 -15.674860 0.696046 1.658590 -3.186445 -0.686300 0.521600 2.247100 9.426445 2.430871 -0.433901 -94.963014 -24.011215 13.606847 5.149345 -11.228642 -0.485945 -0.217300 -0.329529 2.166948 27.913082 -8.633790 -4.376800 -7.125000 0.000000 0.000000 0.904200 20.661700 -0.527100 -7.850279 -2.840645 -0.823024 90.393329 21.755022 11.777136 -11.392413 21.688848 -2.592134 0.886288 0.633427 27.252570 -24.350798 -21.857073 10.186500 7.125000 0.000000 0.000000 4.474500 -54.809300 -1.079700 
0.277028 14.822813 -13.445685 -2.526537 -0.387163 36.149376 2.582654 -1.015954 -1.599438 -6.897623 -13.361681 -68.385201 13.958987 21.006872 72.758578 0.330720 13.474816 -30.603703 1.439500 -7.585200 -21.461100 -3.784515 0.314805 0.371038 10.758897 20.872400 -69.273996 -14.452100 -21.556543 74.319232 -2.123179 -8.724897 -34.977948 -0.085000 1.880400 -5.175300 -0.266047 0.960729 27.197620 1.777640 1.836103 -2.460809 3.337397 0.647704 -7.387130 -3.185093 1.055451 -15.781909 0.813080 1.671794 -2.757387 -0.636100 0.537900 2.450900 9.457964 2.391716 -0.471824 -94.904801 -24.851209 16.441037 5.678706 -12.195540 -0.607299 -0.194089 -0.341560 -0.980068 28.173341 -8.891817 -4.559700 -7.125000 0.000000 0.000000 1.071400 20.350800 -0.632100 -7.884480 -2.776602 -0.855589 90.316875 22.837068 12.626149 -11.768520 22.207959 -2.745685 0.883281 0.628106 26.956899 -24.477832 -21.945953 10.279200 7.125000 0.000000 0.000000 4.361300 -54.919300 -1.064000 
0.268206 14.908294 -13.265394 -2.507830 -0.311449 35.671483 2.500575 -1.044243 -1.572121 -7.423873 -13.005054 -66.459642 13.536837 20.841107 71.553713 0.275610 13.626489 -30.549288 1.568100 -7.901700 -22.416100 -3.741631 0.353412 0.360468 11.500570 20.573646 -67.182068 -14.013921 -21.396863 73.079653 -2.102454 -8.941372 -35.109958 -0.135000 2.368400 -6.524900 -0.226153 0.919588 26.685142 1.784088 1.788543 -2.537844 3.363592 0.632744 -7.421522 -3.217604 1.035363 -15.891242 0.945861 1.671986 -2.258634 -0.580500 0.549800 2.684600 9.485208 2.362244 -0.507501 -94.795189 -25.578041 19.086154 6.225612 -13.174879 -0.741686 -0.172306 -0.351130 -3.631314 28.423326 -9.100053 -4.716400 -7.125000 0.000000 0.000000 1.232700 20.096300 -0.734300 -7.919810 -2.717640 -0.887868 90.244385 23.767014 13.559272 -12.182965 22.783988 -2.918975 0.878750 0.623035 26.740992 -24.559634 -22.045508 10.355000 7.125000 0.000000 0.000000 4.302500 -55.031600 -1.061300 
0.259384 15.003611 -13.073441 -2.464115 -0.218383 35.113307 2.403791 -1.071940 -1.539947 -8.005146 -12.609562 -64.336556 13.061971 20.641191 70.188312 0.197046 13.794824 -30.398679 1.703300 -8.218500 -23.379900 -3.686823 0.392530 0.345809 12.300316 20.167164 -64.873642 -13.520786 -21.199549 71.673210 -2.068621 -9.163709 -35.187208 -0.200400 2.882400 -7.951500 -0.182742 0.865004 26.170820 1.788863 1.722939 -2.616059 3.382632 0.608841 -7.452119 -3.238421 1.008131 -16.015418 1.069220 1.664376 -1.676944 -0.531600 0.558000 2.957200 9.509209 2.343167 -0.540807 -94.650843 -26.199900 21.538120 6.779194 -14.148359 -0.887016 -0.151857 -0.358823 -5.797703 28.653583 -9.233387 -4.830500 -7.125000 0.000000 0.000000 1.383300 19.928200 -0.829200 -7.954883 -2.665468 -0.919506 90.168095 24.523974 14.594972 -12.645544 23.429821 -3.117069 0.873132 0.619823 26.459585 -24.655599 -22.147637 10.438600 7.125000 0.000000 0.000000 4.230300 -55.150000 -1.055700 
0.250968 15.108460 -12.869524 -2.390554 -0.107244 34.467521 2.291057 -1.095657 -1.500621 -8.640067 -12.172387 -62.020899 12.538868 20.403841 68.670824 0.095132 13.962314 -30.130420 1.847200 -8.540300 -24.367500 -3.616976 0.431755 0.326291 13.146658 19.634002 -62.343431 -12.972576 -20.957452 70.094291 -2.022625 -9.379342 -35.202383 -0.276500 3.382200 -9.344700 -0.139359 0.793038 25.652872 1.792768 1.634984 -2.693247 3.408438 0.568311 -7.448054 -3.345923 0.907111 -16.508044 1.239754 1.616820 -0.519474 -0.428100 0.553500 3.069300 9.521266 2.359502 -0.585664 -94.496408 -26.720807 23.782984 7.331126 -15.100342 -1.040783 -0.132499 -0.365352 -7.545231 28.842070 -9.275823 -4.887400 -7.125000 0.000000 0.000000 1.509400 19.867400 -0.906900 -7.993119 -2.607334 -0.959497 90.078275 25.118657 15.716194 -13.146164 24.132932 -3.337278 0.867155 0.619176 26.042963 -24.809741 -22.234879 10.544300 7.125000 0.000000 0.000000 4.091000 -55.266500 -1.032400 
0.243261 15.221928 -12.653742 -2.294110 0.011552 33.748888 2.160421 -1.115610 -1.455061 -9.312077 -11.676173 -59.551377 11.978822 20.127992 67.027335 -0.026991 14.102105 -29.723941 2.000700 -8.867600 -25.381900 -3.533248 0.466317 0.301570 14.023850 18.976807 -59.621820 -12.372418 -20.665763 68.344441 -1.962263 -9.579462 -35.135582 -0.358900 3.848700 -10.651300 -0.094341 0.719975 25.106382 1.796129 1.543394 -2.768909 3.427023 0.529432 -7.444057 -3.401889 0.837948 -16.624637 1.373984 1.570683 0.278395 -0.372500 0.547500 3.372100 9.536993 2.366502 -0.613018 -94.356724 -27.125203 25.814167 7.876232 -16.026925 -1.201494 -0.113591 -0.371438 -8.966705 28.972585 -9.217367 -4.877200 -7.125000 0.000000 0.000000 1.600600 19.927800 -0.959600 -8.028473 -2.567098 -0.984516 89.968622 25.540339 16.875043 -13.661657 24.852191 -3.569532 0.861550 0.619891 25.511693 -25.024037 -22.300584 10.670400 7.125000 0.000000 0.000000 3.878400 -55.373600 -0.988700 
0.236467 15.343204 -12.425894 -2.175033 0.122930 32.953916 2.012445 -1.127931 -1.401284 -10.018750 -11.102418 -56.952280 11.394875 19.814335 65.290126 -0.164504 14.181454 -29.154791 2.162700 -9.197000 -26.413600 -3.433259 0.494721 0.271766 14.904516 18.200095 -56.721765 -11.726489 -20.319823 66.433193 -1.886595 -9.746975 -34.964856 -0.441200 4.261900 -11.814600 -0.063508 0.648633 24.522196 1.798097 1.448158 -2.839403 3.450082 0.487265 -7.401409 -3.482724 0.745699 -16.711405 1.510788 1.502733 1.160886 -0.312500 0.533000 3.695600 9.548995 2.386704 -0.636196 -94.244994 -27.409475 27.650530 8.415537 -16.931543 -1.368348 -0.096294 -0.377269 -10.207927 29.126227 -9.190985 -4.888600 -7.125000 0.000000 0.000000 1.706600 19.950400 -1.022300 -8.063272 -2.533734 -1.003521 89.838459 25.834392 18.017082 -14.154220 25.537688 -3.797069 0.856648 0.621836 24.958932 -25.264028 -22.356584 10.806000 7.125000 0.000000 0.000000 3.634600 -55.477800 -0.935600 
0.230789 15.470868 -12.186486 -2.036409 0.227389 32.095006 1.848727 -1.130312 -1.338320 -10.740119 -10.443958 -54.272226 10.803770 19.468042 63.501912 -0.313702 14.171258 -28.391563 2.334000 -9.529700 -27.466700 -3.316811 0.513890 0.237593 15.767814 17.303150 -53.683045 -11.045347 -19.917940 64.380993 -1.792794 -9.870409 -34.661509 -0.522300 4.631700 -12.861000 -0.044134 0.578022 23.877739 1.797683 1.347742 -2.903187 3.472573 0.441361 -7.304528 -3.594750 0.629101 -16.735961 1.658220 1.409412 2.103846 -0.244300 0.508700 4.023200 9.557570 2.420247 -0.653317 -94.164120 -27.567309 29.299962 8.957103 -17.830326 -1.543966 -0.078849 -0.384104 -11.401119 29.228903 -9.123241 -4.865900 -7.125000 0.000000 0.000000 1.779500 20.027000 -1.063000 -8.098615 -2.507627 -1.014840 89.699039 26.039669 19.088063 -14.583233 26.136098 -4.000376 0.852295 0.624181 24.512388 -25.466040 -22.418053 10.927000 7.125000 0.000000 0.000000 3.434600 -55.581700 -0.892700 
